# xmcd
#
# Track frame offsets:
#	150
#	13331
#	23161
#	31363
#	41535
#	51632
#	61366
#	71528
#	84658
#	94896
#	103258
#	115717
#	126520
#	135886
#	144592
#
# Disc length: 2038 seconds
#
# Revision: 3
# Processed by: cddbd v1.5.1PL0 Copyright (c) Steve Scherf et al.
# Submitted via: dBpowerAMP V4.0
#
DISCID=d807f40f
DTITLE=Various Artist - West Wind
DYEAR=1900
DGENRE=Country
TTITLE0=The Good, The Bad and The Ugly
TTITLE1=Ghost Riders In The Sky
TTITLE2=A Fistful of Dollars
TTITLE3=The Man Who Shot Liberty Valance
TTITLE4=The Hanging Tree
TTITLE5=Streets of Laredo
TTITLE6=Hang'em High
TTITLE7=High Noon
TTITLE8=High Chaparral
TTITLE9=Bonanza
TTITLE10=For a Few Dollars More
TTITLE11=The Big Country
TTITLE12=The Magnificent Seven
TTITLE13=Shenandoah
TTITLE14=Red River Valley
EXTD=
EXTT0=
EXTT1=
EXTT2=
EXTT3=
EXTT4=
EXTT5=
EXTT6=
EXTT7=
EXTT8=
EXTT9=
EXTT10=
EXTT11=
EXTT12=
EXTT13=
EXTT14=
PLAYORDER=
